<?xml version="1.0" encoding="UTF-8"?>
<svg version="1.1" xmlns="http://www.w3.org/2000/svg" width="48" height="48">
<path d="M0 0 C15.84 0 31.68 0 48 0 C48 15.84 48 31.68 48 48 C32.16 48 16.32 48 0 48 C0 32.16 0 16.32 0 0 Z " fill="#FBFBFB" transform="translate(0,0)"/>
<path d="M0 0 C1.31291016 -0.02513672 1.31291016 -0.02513672 2.65234375 -0.05078125 C5.0625 0.3125 5.0625 0.3125 6.87890625 1.58203125 C8.0625 3.3125 8.0625 3.3125 8.0625 7.3125 C7.4025 7.3125 6.7425 7.3125 6.0625 7.3125 C5.7325 5.9925 5.4025 4.6725 5.0625 3.3125 C2.0925 3.3125 -0.8775 3.3125 -3.9375 3.3125 C-3.9375 5.2925 -3.9375 7.2725 -3.9375 9.3125 C-3.23882813 9.57804687 -2.54015625 9.84359375 -1.8203125 10.1171875 C-0.45519531 10.64699219 -0.45519531 10.64699219 0.9375 11.1875 C2.29488281 11.70957031 2.29488281 11.70957031 3.6796875 12.2421875 C6.0625 13.3125 6.0625 13.3125 8.0625 15.3125 C8.61859052 20.53975084 8.61859052 20.53975084 6.859375 22.984375 C4.47271173 24.74843046 2.94129469 24.68131345 0 24.625 C-0.87785156 24.62113281 -1.75570312 24.61726563 -2.66015625 24.61328125 C-4.9375 24.3125 -4.9375 24.3125 -6.9375 22.3125 C-7.0625 19.6875 -7.0625 19.6875 -6.9375 17.3125 C-6.2775 17.3125 -5.6175 17.3125 -4.9375 17.3125 C-4.6075 18.6325 -4.2775 19.9525 -3.9375 21.3125 C-0.9675 21.3125 2.0025 21.3125 5.0625 21.3125 C5.3925 19.3325 5.7225 17.3525 6.0625 15.3125 C5.29164062 15.11914062 4.52078125 14.92578125 3.7265625 14.7265625 C2.72367188 14.46617188 1.72078125 14.20578125 0.6875 13.9375 C-0.31023438 13.68226562 -1.30796875 13.42703125 -2.3359375 13.1640625 C-4.9375 12.3125 -4.9375 12.3125 -6.9375 10.3125 C-7.203125 8.4375 -7.203125 8.4375 -7.1875 6.3125 C-7.19265625 5.61125 -7.1978125 4.91 -7.203125 4.1875 C-6.59159124 -0.12920892 -3.65886696 0.01611836 0 0 Z " fill="#1A1A1A" transform="translate(33.9375,11.6875)"/>
<path d="M0 0 C2.88665932 0.38037208 4.34185358 0.98758848 6.1640625 3.28515625 C6.4140625 5.97265625 6.4140625 5.97265625 6.1640625 8.28515625 C5.1740625 8.28515625 4.1840625 8.28515625 3.1640625 8.28515625 C3.1640625 6.30515625 3.1640625 4.32515625 3.1640625 2.28515625 C-0.1359375 2.61515625 -3.4359375 2.94515625 -6.8359375 3.28515625 C-6.8359375 9.22515625 -6.8359375 15.16515625 -6.8359375 21.28515625 C-3.5359375 21.61515625 -0.2359375 21.94515625 3.1640625 22.28515625 C3.1640625 20.63515625 3.1640625 18.98515625 3.1640625 17.28515625 C4.1540625 16.95515625 5.1440625 16.62515625 6.1640625 16.28515625 C6.52890167 20.78483934 6.52890167 20.78483934 4.96484375 22.9296875 C2.59647879 24.71238304 1.10409836 24.68640657 -1.8359375 24.66015625 C-2.7021875 24.66789062 -3.5684375 24.675625 -4.4609375 24.68359375 C-7.33284885 24.20179283 -8.04773242 23.53642968 -9.8359375 21.28515625 C-10.22412109 19.33984375 -10.22412109 19.33984375 -10.234375 17.16015625 C-10.23824219 16.37125 -10.24210938 15.58234375 -10.24609375 14.76953125 C-10.23449219 13.9496875 -10.22289062 13.12984375 -10.2109375 12.28515625 C-10.22253906 11.4653125 -10.23414063 10.64546875 -10.24609375 9.80078125 C-10.24029297 8.61742187 -10.24029297 8.61742187 -10.234375 7.41015625 C-10.23099121 6.69085937 -10.22760742 5.9715625 -10.22412109 5.23046875 C-9.11063042 -0.34959016 -4.7390219 -0.17752036 0 0 Z " fill="#252525" transform="translate(15.8359375,11.71484375)"/>
<path d="M0 0 C1.60332791 -0.08121924 3.20784026 -0.13929134 4.8125 -0.1875 C6.15248047 -0.23970703 6.15248047 -0.23970703 7.51953125 -0.29296875 C10 0 10 0 11.82421875 1.26171875 C13 3 13 3 13 7 C12.34 7 11.68 7 11 7 C10.67 5.68 10.34 4.36 10 3 C7.03 3 4.06 3 1 3 C0.67 4.65 0.34 6.3 0 8 C-1.125 6.25 -1.125 6.25 -2 4 C-1.0546875 1.859375 -1.0546875 1.859375 0 0 Z " fill="#232423" transform="translate(29,12)"/>
<path d="M0 0 C8.00360036 -0.46174617 8.00360036 -0.46174617 11.5625 1.1875 C13.4433581 3.55901674 13.31898502 5.04938857 13 8 C12.01 8 11.02 8 10 8 C10 6.02 10 4.04 10 2 C7.03 2 4.06 2 1 2 C0.67 1.34 0.34 0.68 0 0 Z " fill="#464646" transform="translate(9,12)"/>
<path d="M0 0 C0.28875 0.61875 0.5775 1.2375 0.875 1.875 C2.20526822 4.38772886 3.19816415 5.73916183 5.9453125 6.6328125 C6.66460937 6.79523437 7.38390625 6.95765625 8.125 7.125 C9.40375 7.41375 10.6825 7.7025 12 8 C11.67 8.99 11.34 9.98 11 11 C9.35293447 10.35731563 7.70737825 9.71076198 6.0625 9.0625 C5.14597656 8.70285156 4.22945312 8.34320313 3.28515625 7.97265625 C1 7 1 7 0 6 C-0.04080783 4.00041636 -0.04254356 1.99954746 0 0 Z " fill="#232323" transform="translate(27,16)"/>
<path d="M0 0 C0.66 0 1.32 0 2 0 C2.3259574 3.01510598 2.43138108 4.46077366 0.5 6.875 C-3.25875841 8.56644129 -5.98067496 7.73687626 -10 7 C-10 6.67 -10 6.34 -10 6 C-7.03 6 -4.06 6 -1 6 C-1.020625 5.195625 -1.04125 4.39125 -1.0625 3.5625 C-1 1 -1 1 0 0 Z " fill="#585858" transform="translate(20,28)"/>
<path d="M0 0 C0.66 0 1.32 0 2 0 C2.33 1.32 2.66 2.64 3 4 C5.64 4.33 8.28 4.66 11 5 C11 5.33 11 5.66 11 6 C9.54364629 6.22174933 8.08477044 6.42698698 6.625 6.625 C5.81289063 6.74101563 5.00078125 6.85703125 4.1640625 6.9765625 C3.44992188 6.98429687 2.73578125 6.99203125 2 7 C0 5 0 5 -0.125 2.375 C-0.08375 1.59125 -0.0425 0.8075 0 0 Z " fill="#444444" transform="translate(27,29)"/>
<path d="M0 0 C2.64 0.33 5.28 0.66 8 1 C8 1.33 8 1.66 8 2 C5.69 2.33 3.38 2.66 1 3 C0.67 4.65 0.34 6.3 0 8 C-1.125 6.25 -1.125 6.25 -2 4 C-1.125 1.75 -1.125 1.75 0 0 Z " fill="#4A4A4A" transform="translate(29,12)"/>
</svg>
